<mxfile host="65bd71144e" modified="2023-07-14T07:45:34.937Z" agent="Mozilla/5.0 (X11; Linux x86_64) AppleWebKit/537.36 (KHTML, like Gecko) Code/1.80.0 Chrome/108.0.5359.215 Electron/22.3.14 Safari/537.36" etag="NdpmA2ZUhLHr3P76aQsj" version="21.6.2" type="embed">
    <diagram id="D-pSSFbaa6TZaP8_UH-x" name="identifier">
        <mxGraphModel dx="757" dy="626" grid="1" gridSize="10" guides="1" tooltips="1" connect="1" arrows="1" fold="1" page="1" pageScale="1" pageWidth="827" pageHeight="1169" math="0" shadow="0">
            <root>
                <mxCell id="0"/>
                <mxCell id="1" parent="0"/>
                <mxCell id="3" value="&lt;font style=&quot;font-size: 23px;&quot;&gt;zVycxrz4cw9UV3lpEitwYo5sydVLiDjmL9NPI9cD8dk=&lt;/font&gt;" style="rounded=0;whiteSpace=wrap;html=1;" parent="1" vertex="1">
                    <mxGeometry x="120" y="90" width="580" height="40" as="geometry"/>
                </mxCell>
                <mxCell id="4" value="&lt;font style=&quot;font-size: 23px;&quot;&gt;zVycxrz4cw9UV3lpEitwYo5sydVLiDjmL9NPI9cD8dk=&lt;/font&gt;" style="rounded=0;whiteSpace=wrap;html=1;" parent="1" vertex="1">
                    <mxGeometry x="120" y="140" width="580" height="40" as="geometry"/>
                </mxCell>
                <mxCell id="9" value="" style="shape=image;html=1;verticalAlign=top;verticalLabelPosition=bottom;labelBackgroundColor=#ffffff;imageAspect=0;aspect=fixed;image=https://cdn0.iconfinder.com/data/icons/evericons-16px/16/x-128.png;fontSize=35;fontColor=#FF0000;" parent="1" vertex="1">
                    <mxGeometry x="660" y="140" width="40" height="40" as="geometry"/>
                </mxCell>
                <mxCell id="10" value="" style="group" parent="1" vertex="1" connectable="0">
                    <mxGeometry x="120" y="230" width="580" height="40" as="geometry"/>
                </mxCell>
                <mxCell id="5" value="&lt;font style=&quot;font-size: 23px;&quot;&gt;zVycxrz4cw9UV3lpEitwYo5sydVLiDjmL9NPI9cD8dk&lt;/font&gt;" style="rounded=0;whiteSpace=wrap;html=1;" parent="10" vertex="1">
                    <mxGeometry x="30" width="550" height="40" as="geometry"/>
                </mxCell>
                <mxCell id="6" value="&lt;font style=&quot;font-size: 23px;&quot;&gt;E&lt;/font&gt;" style="rounded=0;whiteSpace=wrap;html=1;" parent="10" vertex="1">
                    <mxGeometry width="30" height="40" as="geometry"/>
                </mxCell>
                <mxCell id="12" value="" style="shape=flexArrow;endArrow=classic;html=1;strokeWidth=2;fontSize=35;fontColor=#FF0000;width=14.285714285714285;endSize=9.68095238095238;endWidth=17.528344671201815;fillColor=#8C8C8C;strokeColor=#FFFFFF;" parent="1" edge="1">
                    <mxGeometry width="50" height="50" relative="1" as="geometry">
                        <mxPoint x="360" y="206" as="sourcePoint"/>
                        <mxPoint x="460" y="206" as="targetPoint"/>
                    </mxGeometry>
                </mxCell>
                <mxCell id="16" value="&lt;b style=&quot;font-size: 15px;&quot;&gt;Base 64&lt;br&gt;Public Key&lt;/b&gt;" style="rounded=1;whiteSpace=wrap;html=1;" vertex="1" parent="1">
                    <mxGeometry x="349" y="280" width="130" height="40" as="geometry"/>
                </mxCell>
                <mxCell id="17" value="&lt;span style=&quot;font-size: 15px;&quot;&gt;&lt;b&gt;Derivation&lt;br&gt;code&lt;/b&gt;&lt;/span&gt;" style="rounded=1;whiteSpace=wrap;html=1;" vertex="1" parent="1">
                    <mxGeometry x="70" y="280" width="130" height="40" as="geometry"/>
                </mxCell>
            </root>
        </mxGraphModel>
    </diagram>
</mxfile>